<mxfile host="www.draw.io" modified="2019-12-12T18:36:13.950Z" agent="Mozilla/5.0 (X11; Linux x86_64) AppleWebKit/537.36 (KHTML, like Gecko) Ubuntu Chromium/78.0.3904.108 Chrome/78.0.3904.108 Safari/537.36" etag="oUWgz-dTN7JIDC3OUXC1" version="12.4.0" type="github" pages="1">
  <diagram id="aimoSfywsW9FoxRFVn_n" name="Overview">
    <mxGraphModel dx="807" dy="451" grid="1" gridSize="10" guides="1" tooltips="1" connect="1" arrows="1" fold="1" page="1" pageScale="1" pageWidth="850" pageHeight="1100" math="0" shadow="0">
      <root>
        <mxCell id="0"/>
        <mxCell id="1" parent="0"/>
        <mxCell id="UxOi4LWMgCQR2-e_IgbU-6" style="edgeStyle=orthogonalEdgeStyle;rounded=0;orthogonalLoop=1;jettySize=auto;html=1;entryX=0.5;entryY=0;entryDx=0;entryDy=0;fontSize=19;endArrow=ERmany;endFill=0;strokeWidth=2;endSize=13;" edge="1" parent="1" source="UxOi4LWMgCQR2-e_IgbU-2" target="UxOi4LWMgCQR2-e_IgbU-3">
          <mxGeometry relative="1" as="geometry"/>
        </mxCell>
        <mxCell id="UxOi4LWMgCQR2-e_IgbU-2" value="Board" style="rounded=0;whiteSpace=wrap;html=1;fontSize=19;fontStyle=1" vertex="1" parent="1">
          <mxGeometry x="250" y="50" width="120" height="60" as="geometry"/>
        </mxCell>
        <mxCell id="UxOi4LWMgCQR2-e_IgbU-3" value="Notice" style="rounded=0;whiteSpace=wrap;html=1;fontSize=19;fontStyle=1" vertex="1" parent="1">
          <mxGeometry x="250" y="190" width="120" height="60" as="geometry"/>
        </mxCell>
        <mxCell id="UxOi4LWMgCQR2-e_IgbU-7" style="edgeStyle=orthogonalEdgeStyle;rounded=0;orthogonalLoop=1;jettySize=auto;html=1;entryX=1;entryY=0.5;entryDx=0;entryDy=0;endArrow=ERmany;endFill=0;endSize=13;strokeWidth=2;fontSize=19;" edge="1" parent="1" source="UxOi4LWMgCQR2-e_IgbU-4" target="UxOi4LWMgCQR2-e_IgbU-3">
          <mxGeometry relative="1" as="geometry"/>
        </mxCell>
        <mxCell id="UxOi4LWMgCQR2-e_IgbU-4" value="User" style="rounded=0;whiteSpace=wrap;html=1;fontSize=19;fontStyle=1" vertex="1" parent="1">
          <mxGeometry x="450" y="190" width="120" height="60" as="geometry"/>
        </mxCell>
      </root>
    </mxGraphModel>
  </diagram>
</mxfile>
